# Blender v2.67 (sub 0) OBJ File: 'exit.blend'
# www.blender.org
mtllib exit.mtl
v 0.316319 -0.530171 0.035279
v -0.316319 -0.530171 0.035279
v 0.316319 -0.396865 0.000000
v -0.316319 -0.396865 0.000000
v 0.316319 -0.404432 1.576229
v -0.316319 -0.404432 1.576229
v 0.316319 -0.313378 1.682689
v -0.316319 -0.313378 1.682689
v 0.316319 -0.114661 1.778282
v -0.316319 -0.114661 1.778282
v 0.316319 -0.530171 0.000000
v -0.316319 -0.530171 0.000000
v 0.316319 -0.530171 0.000000
v -0.316319 -0.530171 0.000000
v 0.316319 -0.530171 1.620500
v -0.316319 -0.530171 1.620500
v 0.316319 -0.396257 1.787093
v -0.316319 -0.396257 1.787093
v 0.316319 -0.144282 1.908252
v -0.316319 -0.144282 1.908252
v 0.100536 -0.518401 0.032774
v -0.100536 -0.518401 0.032774
v 0.100536 -0.391295 0.003695
v -0.100536 -0.391295 0.003695
v 0.100536 -0.398510 1.506617
v -0.100536 -0.398510 1.506617
v 0.100536 -0.311691 1.608126
v -0.100536 -0.311691 1.608126
v 0.100536 -0.122216 1.699273
v -0.100536 -0.122216 1.699273
v 0.100536 -0.518401 0.003695
v -0.100536 -0.518401 0.003695
v 0.100536 -0.518401 0.003695
v -0.100536 -0.518401 0.003695
v 0.100536 -0.518401 1.548829
v -0.100536 -0.518401 1.548829
v 0.100536 -0.390715 1.707675
v -0.100536 -0.390715 1.707675
v 0.100536 -0.150459 1.823199
v -0.100536 -0.150459 1.823199
v 0.316319 0.530171 0.035279
v -0.316319 0.530171 0.035279
v 0.316319 0.000000 0.035279
v -0.316319 0.000000 0.035279
v 0.316319 0.396865 0.000000
v -0.316319 0.396865 0.000000
v 0.316319 0.404432 1.576229
v -0.316319 0.404432 1.576229
v 0.316319 0.313378 1.682689
v -0.316319 0.313378 1.682689
v 0.316319 0.114661 1.778282
v -0.316319 0.114661 1.778282
v 0.316319 0.000000 1.774946
v -0.316319 0.000000 1.774946
v 0.316319 0.530171 0.000000
v -0.316319 0.530171 0.000000
v 0.316319 0.000000 0.000000
v -0.316319 0.000000 0.000000
v 0.316319 0.530171 0.000000
v -0.316319 0.530171 0.000000
v 0.316319 0.530171 1.620500
v -0.316319 0.530171 1.620500
v 0.316319 0.396257 1.787093
v -0.316319 0.396257 1.787093
v 0.316319 0.144282 1.908252
v -0.316319 0.144282 1.908252
v 0.316319 0.000000 1.908252
v -0.316319 0.000000 1.908252
v 0.100536 0.518401 0.032774
v -0.100536 0.518401 0.032774
v 0.100536 0.000000 0.032774
v -0.100536 0.000000 0.032774
v 0.100536 0.391295 0.003695
v -0.100536 0.391295 0.003695
v 0.100536 0.398510 1.506617
v -0.100536 0.398510 1.506617
v 0.100536 0.311691 1.608126
v -0.100536 0.311691 1.608126
v 0.100536 0.122216 1.699273
v -0.100536 0.122216 1.699273
v 0.100536 0.000000 1.696093
v -0.100536 0.000000 1.696093
v 0.100536 0.518401 0.003695
v -0.100536 0.518401 0.003695
v 0.100536 0.000000 0.003695
v -0.100536 0.000000 0.003695
v 0.100536 0.518401 0.003695
v -0.100536 0.518401 0.003695
v 0.100536 0.518401 1.548829
v -0.100536 0.518401 1.548829
v 0.100536 0.390715 1.707675
v -0.100536 0.390715 1.707675
v 0.100536 0.150459 1.823199
v -0.100536 0.150459 1.823199
v 0.100536 0.000000 1.823199
v -0.100536 0.000000 1.823199
vt 0.244206 0.860291
vt 0.248861 0.944431
vt 0.044213 0.860904
vt 0.924368 0.656699
vt 0.928655 0.740866
vt 0.877291 0.740708
vt 0.413440 0.001936
vt 0.497598 0.000757
vt 0.495712 0.615476
vt 0.411642 0.588066
vt 0.495585 0.656938
vt 0.999759 0.162951
vt 0.998937 0.247102
vt 0.919941 0.246860
vt 0.876869 0.162574
vt 0.924437 0.162720
vt 0.875318 0.246723
vt 0.290700 0.741091
vt 0.291018 0.656938
vt 0.497598 0.657572
vt 0.000000 0.000000
vt 0.162855 0.093179
vt 0.246923 0.064970
vt 0.248861 0.696951
vt 0.162665 0.031231
vt 0.246723 0.000000
vt 0.749618 0.855753
vt 0.742120 0.771622
vt 0.846248 0.771302
vt 0.548983 0.847187
vt 0.585694 0.847075
vt 0.546075 0.900420
vt 0.642517 0.712149
vt 0.686458 0.720542
vt 0.675223 0.771302
vt 0.027643 0.697708
vt 0.027697 0.751486
vt 0.014393 0.747979
vt 0.290261 0.656980
vt 0.289627 0.863742
vt 0.276503 0.656938
vt 0.574906 0.659001
vt 0.534549 0.691771
vt 0.030267 0.751486
vt 0.030321 0.697708
vt 0.043571 0.747979
vt 0.823709 0.610790
vt 0.687983 0.011235
vt 0.875318 0.617050
vt 0.684934 0.011235
vt 0.549207 0.610790
vt 0.634174 0.000000
vt 0.798010 0.659001
vt 0.730399 0.712149
vt 0.752632 0.759142
vt 0.000634 0.904512
vt 0.000000 0.697750
vt 0.013758 0.697708
vt 0.248104 0.697708
vt 0.243965 0.781875
vt 0.043571 0.698335
vt 0.929412 0.494143
vt 0.924609 0.578282
vt 0.875559 0.578132
vt 0.250874 0.000000
vt 0.335024 0.001696
vt 0.333225 0.587826
vt 0.248989 0.614719
vt 0.333104 0.627359
vt 0.411520 0.627600
vt 0.999694 0.000379
vt 1.000000 0.084534
vt 0.924678 0.084303
vt 0.876075 0.000000
vt 0.920698 0.000137
vt 0.877109 0.084157
vt 0.290262 0.903661
vt 0.290459 0.819507
vt 0.492452 0.820127
vt 0.000199 0.065727
vt 0.084439 0.093420
vt 0.086287 0.696008
vt 0.164703 0.695768
vt 0.000000 0.000757
vt 0.084249 0.031471
vt 0.581278 0.900312
vt 0.648487 0.846882
vt 0.749859 0.934169
vt 0.848903 0.855448
vt 0.686458 0.771792
vt 0.691573 0.855931
vt 0.875318 0.656548
vt 0.492693 0.741711
vt 0.620284 0.759142
vt 0.958557 0.409578
vt 0.908987 0.409730
vt 0.928063 0.493826
vt 0.838368 0.691771
vt 0.697693 0.771302
vt 0.497598 0.617050
vt 0.014393 0.904470
vt 0.250337 0.741094
vt 0.261677 0.741129
vt 0.249618 0.656938
vt 0.043972 0.782488
vt 0.878048 0.493985
vt 0.248861 0.656181
vt 0.496841 0.904295
vt 0.002138 0.697708
vt 0.647134 0.900110
vt 0.849143 0.933864
vt 0.691813 0.934347
vt 0.927306 0.247102
vt 0.875318 0.247262
vt 0.908747 0.331314
vt 0.958317 0.331162
vt 0.248861 0.903661
vt 0.262620 0.903703
vt 0.261437 0.819545
vt 0.250096 0.819511
vt 0.044328 0.945058
vt 0.275869 0.863700
vt 0.738742 0.000000
vt 0.876075 0.493985
vt 0.263377 0.656980
vn -0.011606 0.000000 0.999933
vn 0.002734 -0.255836 -0.966716
vn -0.025887 0.999653 0.004799
vn -0.224648 0.740527 -0.633366
vn -0.300255 0.413501 -0.859572
vn -0.343128 -0.024437 -0.938971
vn -0.017122 0.000000 -0.999853
vn 0.000000 0.000000 0.000000
vn 0.054464 -0.998516 0.000000
vn 0.243088 -0.756030 0.607723
vn 0.324297 -0.409924 0.852522
vn -0.366703 0.000000 0.930338
vn 1.000000 0.000000 0.000000
vn -1.000000 0.000000 0.000000
vn 0.011606 0.000000 0.999933
vn 0.000000 0.000000 1.000000
vn -0.000849 -0.223015 -0.974815
vn 0.000000 -0.223015 -0.974815
vn 0.025887 0.999653 0.004799
vn -0.000000 0.999988 0.004801
vn 0.224648 0.740527 -0.633366
vn 0.000000 0.759952 -0.649980
vn 0.300255 0.413501 -0.859572
vn 0.000000 0.433503 -0.901152
vn 0.343102 -0.027317 -0.938901
vn 0.000000 -0.026017 -0.999662
vn 0.017122 0.000000 -0.999853
vn 0.000000 0.000000 -1.000000
vn -0.054464 -0.998516 0.000000
vn 0.000000 -1.000000 0.000000
vn -0.243088 -0.756029 0.607723
vn 0.000000 -0.779408 0.626516
vn -0.324297 -0.409924 0.852522
vn 0.000000 -0.433344 0.901229
vn 0.366703 -0.000000 0.930338
vn 0.022444 0.222958 -0.974570
vn -0.025887 -0.999653 0.004799
vn -0.224648 -0.740527 -0.633366
vn -0.300255 -0.413501 -0.859572
vn -0.343128 0.024437 -0.938971
vn 0.054464 0.998516 -0.000000
vn 0.243088 0.756029 0.607723
vn 0.324297 0.409924 0.852522
vn -0.023152 0.255768 -0.966461
vn 0.000000 0.223015 -0.974815
vn 0.025887 -0.999653 0.004799
vn 0.000000 -0.999988 0.004801
vn 0.224648 -0.740527 -0.633366
vn 0.000000 -0.759952 -0.649980
vn 0.300255 -0.413501 -0.859572
vn 0.000000 -0.433503 -0.901152
vn 0.343102 0.027317 -0.938901
vn 0.000000 0.026017 -0.999662
vn -0.054464 0.998516 0.000000
vn 0.000000 1.000000 0.000000
vn -0.243088 0.756030 0.607723
vn -0.000000 0.779408 0.626516
vn -0.324297 0.409924 0.852522
vn -0.000000 0.433344 0.901229
vn 0.022444 -0.222958 -0.974570
vn -0.344541 -0.027302 -0.938374
vn 0.243088 -0.756029 0.607723
vn -0.023152 -0.255768 -0.966461
vn 0.344478 -0.024424 -0.938477
vn -0.243088 -0.756030 0.607723
vn 0.002734 0.255836 -0.966716
vn -0.344541 0.027302 -0.938374
vn 0.243088 0.756030 0.607723
vn -0.000849 0.223015 -0.974815
vn 0.344478 0.024424 -0.938477
vn -0.243088 0.756029 0.607723
g Plane_Plane_Material.001
usemtl Material.001
s off
f 21/1/1 1/2/1 71/3/1
f 22/4/2 2/5/2 4/6/2
f 24/7/3 4/8/3 6/9/3
f 26/10/4 6/9/4 8/11/4
f 28/12/5 8/13/5 10/14/5
f 82/15/6 30/16/6 54/17/6
f 85/18/7 57/19/7 11/20/7
f 34/21/8 14/21/8 12/21/8
f 36/22/9 16/23/9 14/24/9
f 38/25/10 18/26/10 16/23/10
f 40/27/11 20/28/11 18/29/11
f 95/30/12 39/31/12 67/32/12
f 9/33/13 53/34/13 67/35/13
f 4/36/13 2/37/13 14/38/13
f 2/39/14 44/40/14 12/41/14
f 7/42/13 9/33/13 17/43/13
f 1/44/14 3/45/14 13/46/14
f 6/47/14 4/48/14 16/49/14
f 3/50/13 5/51/13 13/52/13
f 8/53/14 6/47/14 16/49/14
f 54/34/14 10/54/14 20/55/14
f 5/51/13 7/42/13 17/43/13
f 43/56/13 1/57/13 11/58/13
f 10/54/14 8/53/14 20/55/14
f 2/59/15 22/60/15 44/61/15
f 22/60/16 21/1/16 71/3/16
f 1/62/17 21/63/17 23/64/17
f 21/63/18 22/4/18 23/64/18
f 3/65/19 23/66/19 25/67/19
f 23/66/20 24/7/20 26/10/20
f 5/68/21 25/67/21 27/69/21
f 25/67/22 26/10/22 28/70/22
f 7/71/23 27/72/23 29/73/23
f 27/72/24 28/12/24 30/16/24
f 53/74/25 9/75/25 81/76/25
f 81/76/26 29/73/26 30/16/26
f 58/77/27 86/78/27 32/79/27
f 86/78/28 85/18/28 32/79/28
f 13/21/8 33/21/8 31/21/8
f 33/21/8 34/21/8 32/21/8
f 15/80/29 35/81/29 33/82/29
f 35/81/30 36/22/30 34/83/30
f 17/84/31 37/85/31 35/81/31
f 37/85/32 38/25/32 36/22/32
f 19/86/33 39/31/33 37/87/33
f 39/88/34 40/27/34 38/89/34
f 68/90/35 20/28/35 96/91/35
f 96/91/16 40/27/16 39/88/16
f 69/1/1 71/3/1 41/2/1
f 70/4/36 74/92/36 46/6/36
f 74/7/37 76/10/37 48/9/37
f 76/10/38 78/70/38 50/11/38
f 78/12/39 80/16/39 52/14/39
f 82/15/40 54/17/40 80/16/40
f 85/18/7 83/93/7 55/20/7
f 88/21/8 84/21/8 56/21/8
f 90/22/41 88/83/41 60/24/41
f 92/25/42 90/22/42 62/23/42
f 94/27/43 92/89/43 64/29/43
f 95/30/12 67/32/12 93/31/12
f 51/33/13 65/94/13 67/35/13
f 46/36/8 60/38/8 56/38/8
f 42/39/14 56/41/14 44/40/14
f 49/42/13 63/43/13 51/33/13
f 41/44/8 55/46/8 59/46/8
f 48/47/14 62/49/14 46/48/14
f 45/50/13 59/52/13 47/51/13
f 82/95/30 96/96/30 54/97/30
f 50/53/14 64/98/14 62/49/14
f 54/34/14 68/99/14 66/55/14
f 47/51/13 61/100/13 63/43/13
f 43/56/13 57/101/13 55/58/13
f 71/102/30 85/103/30 43/104/30
f 52/54/14 66/55/14 50/53/14
f 42/59/15 44/61/15 70/60/15
f 70/60/16 72/105/16 71/3/16
f 41/62/44 45/106/44 73/64/44
f 69/63/45 73/64/45 70/4/45
f 45/65/46 47/68/46 75/67/46
f 73/66/47 75/67/47 76/10/47
f 47/68/48 49/107/48 77/69/48
f 75/67/49 77/69/49 78/70/49
f 49/71/50 51/75/50 79/73/50
f 77/72/51 79/73/51 80/16/51
f 53/74/52 81/76/52 51/75/52
f 81/76/53 82/15/53 80/16/53
f 58/77/27 56/108/27 84/79/27
f 86/78/28 84/79/28 85/18/28
f 59/21/8 55/21/8 83/21/8
f 87/21/8 83/21/8 84/21/8
f 61/80/54 59/109/54 87/82/54
f 89/81/55 87/82/55 88/83/55
f 63/84/56 61/80/56 89/81/56
f 91/85/57 89/81/57 90/22/57
f 65/86/58 63/110/58 91/87/58
f 93/88/59 91/111/59 92/89/59
f 68/90/35 96/91/35 66/28/35
f 96/91/16 95/112/16 93/88/16
f 53/113/30 67/114/30 95/115/30
f 81/116/30 95/115/30 96/96/30
f 44/117/30 58/118/30 86/119/30
f 72/120/30 86/119/30 85/103/30
f 1/2/1 43/121/1 71/3/1
f 24/92/60 22/4/60 4/6/60
f 26/10/3 24/7/3 6/9/3
f 28/70/4 26/10/4 8/11/4
f 30/16/5 28/12/5 10/14/5
f 30/16/61 10/14/61 54/17/61
f 31/93/7 85/18/7 11/20/7
f 32/21/8 34/21/8 12/21/8
f 34/83/9 36/22/9 14/24/9
f 36/22/62 38/25/62 16/23/62
f 38/89/11 40/27/11 18/29/11
f 39/31/12 19/86/12 67/32/12
f 19/94/13 9/33/13 67/35/13
f 2/37/8 12/38/8 14/38/8
f 44/40/14 58/122/14 12/41/14
f 9/33/13 19/94/13 17/43/13
f 11/46/8 1/44/8 13/46/8
f 4/48/14 14/123/14 16/49/14
f 5/51/13 15/100/13 13/52/13
f 18/98/14 8/53/14 16/49/14
f 68/99/14 54/34/14 20/55/14
f 15/100/13 5/51/13 17/43/13
f 57/101/13 43/56/13 11/58/13
f 8/53/14 18/98/14 20/55/14
f 22/60/15 72/105/15 44/61/15
f 72/105/16 22/60/16 71/3/16
f 3/106/63 1/62/63 23/64/63
f 22/4/18 24/92/18 23/64/18
f 5/68/19 3/65/19 25/67/19
f 25/67/20 23/66/20 26/10/20
f 7/107/21 5/68/21 27/69/21
f 27/69/22 25/67/22 28/70/22
f 9/75/23 7/71/23 29/73/23
f 29/73/24 27/72/24 30/16/24
f 9/75/64 29/73/64 81/76/64
f 82/15/26 81/76/26 30/16/26
f 12/108/27 58/77/27 32/79/27
f 85/18/28 31/93/28 32/79/28
f 11/21/8 13/21/8 31/21/8
f 31/21/8 33/21/8 32/21/8
f 13/109/29 15/80/29 33/82/29
f 33/82/30 35/81/30 34/83/30
f 15/80/65 17/84/65 35/81/65
f 35/81/32 37/85/32 36/22/32
f 17/110/33 19/86/33 37/87/33
f 37/111/34 39/88/34 38/89/34
f 20/28/35 40/27/35 96/91/35
f 95/112/16 96/91/16 39/88/16
f 71/3/1 43/121/1 41/2/1
f 42/5/66 70/4/66 46/6/66
f 46/8/37 74/7/37 48/9/37
f 48/9/38 76/10/38 50/11/38
f 50/13/39 78/12/39 52/14/39
f 54/17/67 52/14/67 80/16/67
f 57/19/7 85/18/7 55/20/7
f 60/21/8 88/21/8 56/21/8
f 62/23/41 90/22/41 60/24/41
f 64/26/68 92/25/68 62/23/68
f 66/28/43 94/27/43 64/29/43
f 67/32/12 65/86/12 93/31/12
f 53/34/13 51/33/13 67/35/13
f 42/37/13 46/36/13 56/38/13
f 56/41/14 58/122/14 44/40/14
f 63/43/13 65/94/13 51/33/13
f 45/45/14 41/44/14 59/46/14
f 62/49/14 60/123/14 46/48/14
f 59/52/13 61/100/13 47/51/13
f 96/96/30 68/124/30 54/97/30
f 48/47/14 50/53/14 62/49/14
f 52/54/14 54/34/14 66/55/14
f 49/42/13 47/51/13 63/43/13
f 41/57/13 43/56/13 55/58/13
f 85/103/30 57/125/30 43/104/30
f 66/55/14 64/98/14 50/53/14
f 44/61/15 72/105/15 70/60/15
f 69/1/16 70/60/16 71/3/16
f 69/63/69 41/62/69 73/64/69
f 73/64/45 74/92/45 70/4/45
f 73/66/46 45/65/46 75/67/46
f 74/7/47 73/66/47 76/10/47
f 75/67/48 47/68/48 77/69/48
f 76/10/49 75/67/49 78/70/49
f 77/72/50 49/71/50 79/73/50
f 78/12/51 77/72/51 80/16/51
f 81/76/70 79/73/70 51/75/70
f 79/73/53 81/76/53 80/16/53
f 86/78/27 58/77/27 84/79/27
f 84/79/28 83/93/28 85/18/28
f 87/21/8 59/21/8 83/21/8
f 88/21/8 87/21/8 84/21/8
f 89/81/54 61/80/54 87/82/54
f 90/22/55 89/81/55 88/83/55
f 91/85/71 63/84/71 89/81/71
f 92/25/57 91/85/57 90/22/57
f 93/31/58 65/86/58 91/87/58
f 94/27/59 93/88/59 92/89/59
f 96/91/35 94/27/35 66/28/35
f 94/27/16 96/91/16 93/88/16
f 81/116/30 53/113/30 95/115/30
f 82/95/30 81/116/30 96/96/30
f 72/120/30 44/117/30 86/119/30
f 71/102/30 72/120/30 85/103/30
