# Blender v2.67 (sub 0) OBJ File: 'mirror.blend'
# www.blender.org
mtllib mirror.mtl
v -0.035157 -0.428609 0.766902
v 0.035157 -0.428609 0.766902
v -0.035157 -0.428609 1.777558
v 0.035157 -0.428609 1.777558
v -0.035157 -0.346335 0.654360
v 0.035157 -0.346335 2.200306
v -0.035157 -0.346335 2.200306
v 0.035157 -0.346335 0.654360
v -0.035157 0.428609 0.766902
v 0.035157 0.428609 0.766902
v -0.035157 0.428609 1.777558
v 0.035157 0.428609 1.777558
v -0.035157 0.000000 2.200306
v -0.035157 0.000000 0.766902
v 0.035157 0.000000 2.200306
v 0.035157 0.000000 0.766902
v -0.035157 0.346335 0.654360
v 0.035157 0.346335 2.200306
v -0.035157 0.346335 2.200306
v 0.035157 0.346335 0.654360
vt 0.427570 0.001001
vt 0.286715 0.001001
vt 0.427570 0.284713
vt 0.284713 0.001001
vt 0.001001 0.001001
vt 0.001001 0.284713
vt 0.284713 0.427570
vt 0.284713 0.286715
vt 0.001001 0.427570
vt 0.570428 0.001001
vt 0.429572 0.001001
vt 0.429572 0.284713
vt 0.284713 0.570428
vt 0.284713 0.429572
vt 0.001001 0.429572
vt 0.713285 0.286715
vt 0.572430 0.286715
vt 0.713285 0.570428
vt 0.570428 0.713285
vt 0.570428 0.572430
vt 0.286715 0.713285
vt 0.713285 0.001001
vt 0.572430 0.001001
vt 0.572430 0.284713
vt 0.284713 0.713285
vt 0.284713 0.572430
vt 0.001001 0.572430
vt 0.713285 0.856142
vt 0.713285 0.572430
vt 0.572430 0.856142
vt 0.570428 0.286715
vt 0.286715 0.286715
vt 0.286715 0.570428
vt 0.286715 0.856142
vt 0.570428 0.856142
vt 0.286715 0.715287
vt 0.856142 0.856142
vt 0.856142 0.572430
vt 0.715287 0.572430
vt 0.001001 0.856142
vt 0.284713 0.856142
vt 0.284713 0.715287
vt 0.856142 0.570428
vt 0.856142 0.286715
vt 0.715287 0.570428
vt 0.715287 0.284713
vt 0.998999 0.284713
vt 0.715287 0.143858
vt 0.998999 0.856142
vt 0.998999 0.572430
vt 0.858144 0.572430
vt 0.715287 0.141856
vt 0.998999 0.141856
vt 0.998999 0.001001
vt 0.286715 0.284713
vt 0.284713 0.284713
vt 0.001001 0.286715
vt 0.570428 0.284713
vt 0.001001 0.570428
vt 0.572430 0.570428
vt 0.286715 0.572430
vt 0.713285 0.284713
vt 0.001001 0.713285
vt 0.572430 0.572430
vt 0.570428 0.570428
vt 0.570428 0.715287
vt 0.715287 0.856142
vt 0.001001 0.715287
vt 0.715287 0.286715
vt 0.998999 0.143858
vt 0.858144 0.856142
vt 0.715287 0.001001
vn 1.000000 0.000000 -0.000000
vn 0.000000 -1.000000 0.000000
vn -1.000000 0.000000 0.000000
vn 0.000000 0.309044 -0.951048
vn -0.000000 0.000000 1.000000
vn -0.000000 -0.807285 -0.590162
vn 0.000000 -0.981584 0.191031
vn 0.000000 1.000000 0.000000
vn -0.000000 -0.309044 -0.951048
vn 0.000000 0.807285 -0.590162
vn -0.000000 0.981584 0.191031
g Cube_Cube.002_Material.002
usemtl Material.002
s off
f 6/1/1 4/2/1 8/3/1
f 4/4/2 3/5/2 1/6/2
f 7/7/3 13/8/3 5/9/3
f 5/10/4 14/11/4 16/12/4
f 6/13/5 15/14/5 13/15/5
f 15/16/1 6/17/1 16/18/1
f 3/19/3 7/20/3 1/21/3
f 1/22/6 5/23/6 8/24/6
f 4/25/7 6/26/7 7/27/7
f 18/28/1 20/29/1 12/30/1
f 12/31/8 10/32/8 9/33/8
f 19/34/3 17/35/3 13/36/3
f 17/37/9 20/38/9 16/39/9
f 18/40/5 19/41/5 13/42/5
f 15/43/1 16/44/1 18/45/1
f 11/46/3 9/47/3 19/48/3
f 9/49/10 10/50/10 20/51/10
f 12/52/11 11/53/11 19/54/11
f 4/2/1 2/55/1 8/3/1
f 2/56/2 4/4/2 1/6/2
f 13/8/3 14/57/3 5/9/3
f 8/58/4 5/10/4 16/12/4
f 7/59/5 6/13/5 13/15/5
f 6/17/1 8/60/1 16/18/1
f 7/20/3 5/61/3 1/21/3
f 2/62/6 1/22/6 8/24/6
f 3/63/7 4/25/7 7/27/7
f 20/29/1 10/64/1 12/30/1
f 11/65/8 12/31/8 9/33/8
f 17/35/3 14/66/3 13/36/3
f 14/67/9 17/37/9 16/39/9
f 15/68/5 18/40/5 13/42/5
f 16/44/1 20/69/1 18/45/1
f 9/47/3 17/70/3 19/48/3
f 17/71/10 9/49/10 20/51/10
f 18/72/11 12/52/11 19/54/11
v -0.436756 -0.429107 0.002179
v 0.421808 -0.414160 0.002179
v -0.436756 -0.429107 0.370346
v 0.421808 -0.414160 0.370346
v -0.516475 -0.251922 0.370346
v -0.516475 -0.251922 0.002179
v -0.436756 -0.429107 0.094221
v -0.436756 -0.429107 0.186262
v -0.436756 -0.429107 0.278304
v 0.516475 -0.251922 0.370346
v 0.421808 -0.414160 0.278304
v 0.421808 -0.414160 0.186262
v 0.421808 -0.414160 0.094221
v 0.516475 -0.251922 0.002179
v 0.258237 -0.503844 0.370346
v -0.000000 -0.503844 0.370346
v -0.258237 -0.503844 0.370346
v -0.258237 -0.503844 0.002179
v 0.000000 -0.503844 0.002179
v 0.258237 -0.503844 0.002179
v -0.516475 -0.251922 0.278304
v -0.516475 -0.251922 0.186262
v -0.516475 -0.251922 0.094221
v -0.070484 -0.557061 0.751715
v 0.516475 -0.251922 0.278304
v 0.516475 -0.251922 0.186262
v 0.516475 -0.251922 0.094221
v 0.258237 -0.503844 0.278304
v 0.258237 -0.503844 0.186262
v 0.258237 -0.503844 0.094221
v -0.000000 -0.503844 0.278304
v 0.000000 -0.503844 0.186262
v 0.000000 -0.503844 0.094221
v -0.258237 -0.503844 0.278304
v -0.258237 -0.503844 0.186262
v -0.258237 -0.503844 0.094221
v -0.258237 -0.251922 0.002179
v 0.000000 -0.251922 0.002179
v 0.258237 -0.251922 0.002179
v -0.000000 -0.557061 0.751715
v 0.070484 -0.387886 0.616651
v 0.070484 -0.557061 0.751715
v 0.258237 -0.251922 0.370346
v -0.258237 -0.251922 0.370346
v -0.070484 -0.387886 0.616651
v -0.000000 -0.387886 0.616651
v -0.070484 -0.414778 1.216064
v -0.000000 -0.414778 1.216064
v 0.070484 -0.414778 1.216064
v 0.070484 -0.503844 0.538960
v -0.000000 -0.503844 0.538960
v -0.070484 -0.503844 0.538960
v 0.070484 -0.251922 0.538960
v -0.000000 -0.251922 0.538960
v -0.070484 -0.251922 0.538960
v -0.070484 -0.432945 1.586196
v -0.000000 -0.432945 1.586196
v 0.070484 -0.432945 1.586196
v -0.436756 0.429107 0.002179
v 0.421808 0.414160 0.002179
v -0.436756 0.429107 0.370346
v 0.421808 0.414160 0.370346
v -0.516475 0.251922 0.370346
v -0.516475 -0.000000 0.370346
v -0.516475 0.000000 0.002179
v -0.516475 0.251922 0.002179
v -0.436756 0.429107 0.094221
v -0.436756 0.429107 0.186262
v -0.436756 0.429107 0.278304
v 0.516475 0.000000 0.370346
v 0.516475 0.251922 0.370346
v 0.421808 0.414160 0.278304
v 0.421808 0.414160 0.186262
v 0.421808 0.414160 0.094221
v 0.516475 0.251922 0.002179
v 0.516475 -0.000000 0.002179
v 0.258237 0.503844 0.370346
v -0.000000 0.503844 0.370346
v -0.258237 0.503844 0.370346
v -0.258237 0.503844 0.002179
v 0.000000 0.503844 0.002179
v 0.258237 0.503844 0.002179
v -0.516475 0.251922 0.278304
v -0.516475 0.251922 0.186262
v -0.516475 0.251922 0.094221
v -0.516475 -0.000000 0.278304
v -0.516475 0.000000 0.186262
v -0.516475 0.000000 0.094221
v -0.070484 0.557061 0.751715
v 0.516475 0.000000 0.278304
v 0.516475 -0.000000 0.186262
v 0.516475 -0.000000 0.094221
v 0.516475 0.251922 0.278304
v 0.516475 0.251922 0.186262
v 0.516475 0.251922 0.094221
v 0.258237 0.503844 0.278304
v 0.258237 0.503844 0.186262
v 0.258237 0.503844 0.094221
v -0.000000 0.503844 0.278304
v 0.000000 0.503844 0.186262
v 0.000000 0.503844 0.094221
v -0.258237 0.503844 0.278304
v -0.258237 0.503844 0.186262
v -0.258237 0.503844 0.094221
v -0.258237 0.251922 0.002179
v 0.000000 0.251922 0.002179
v 0.258237 0.251922 0.002179
v -0.258237 0.000000 0.002179
v 0.000000 -0.000000 0.002179
v 0.258237 -0.000000 0.002179
v -0.000000 0.557061 0.751715
v 0.070484 0.387886 0.616651
v 0.070484 0.557061 0.751715
v 0.258237 0.251922 0.370346
v -0.258237 0.251922 0.370346
v 0.258237 0.000000 0.370346
v -0.258237 -0.000000 0.370346
v -0.070484 0.387886 0.616651
v -0.000000 0.387886 0.616651
v -0.070484 0.414778 1.216064
v -0.000000 0.414778 1.216064
v 0.070484 0.414778 1.216064
v 0.070484 0.503844 0.538960
v -0.000000 0.503844 0.538960
v -0.070484 0.503844 0.538960
v 0.070484 0.251922 0.538960
v -0.000000 0.251922 0.538960
v -0.070484 0.251922 0.538960
v 0.070484 0.000000 0.538960
v -0.000000 -0.000000 0.538960
v -0.070484 -0.000000 0.538960
v -0.070484 0.432945 1.586196
v -0.000000 0.432945 1.586196
v 0.070484 0.432945 1.586196
vt 0.660525 0.846472
vt 0.584174 0.846237
vt 0.584319 0.798925
vt 0.074672 0.047797
vt 0.000435 0.047311
vt 0.074817 0.000485
vt 0.583303 0.844706
vt 0.502716 0.844953
vt 0.583157 0.797393
vt 0.395935 0.845281
vt 0.502571 0.797641
vt 0.583738 0.986644
vt 0.503151 0.986891
vt 0.583593 0.939331
vt 0.503006 0.939579
vt 0.583448 0.892019
vt 0.502861 0.892266
vt 0.396371 0.987219
vt 0.396225 0.939906
vt 0.396080 0.892594
vt 0.766488 0.846797
vt 0.660670 0.799159
vt 0.766052 0.988735
vt 0.660090 0.988410
vt 0.660235 0.941097
vt 0.766198 0.941422
vt 0.660380 0.893784
vt 0.766343 0.894109
vt 0.583738 0.988175
vt 0.583883 0.940863
vt 0.584028 0.893550
vt 0.360387 0.048416
vt 0.291134 0.048491
vt 0.291279 0.001180
vt 0.182903 0.048144
vt 0.183048 0.000833
vt 0.359952 0.190350
vt 0.290698 0.190425
vt 0.290843 0.143114
vt 0.360097 0.143039
vt 0.290989 0.095802
vt 0.360242 0.095728
vt 0.182468 0.190078
vt 0.182613 0.142766
vt 0.182758 0.095455
vt 0.074237 0.189731
vt 0.074382 0.142419
vt 0.074527 0.095108
vt 0.000000 0.189245
vt 0.000145 0.141934
vt 0.000290 0.094623
vt 1.000000 0.108913
vt 0.891751 0.108581
vt 0.892084 0.000332
vt 0.783503 0.108248
vt 0.966992 0.400143
vt 0.890755 0.433326
vt 0.999336 0.325410
vt 0.891087 0.325078
vt 0.999668 0.217161
vt 0.891419 0.216829
vt 0.782507 0.432994
vt 0.782839 0.324745
vt 0.783171 0.216497
vt 0.783899 0.124513
vt 0.675686 0.127310
vt 0.749862 0.050536
vt 0.567473 0.130107
vt 0.564676 0.021894
vt 0.387531 0.065075
vt 0.456448 0.024026
vt 0.458581 0.132254
vt 0.330655 0.923249
vt 0.360200 0.923340
vt 0.360021 0.981762
vt 0.675573 0.128516
vt 0.781646 0.137329
vt 0.782507 0.225479
vt 0.566809 0.130122
vt 0.465627 0.243821
vt 0.570723 0.262722
vt 0.515279 0.293328
vt 0.457840 0.129146
vt 0.565018 0.133464
vt 0.182202 0.276748
vt 0.211742 0.276843
vt 0.210992 0.386378
vt 0.152661 0.276654
vt 0.301109 0.923158
vt 0.330475 0.981672
vt 0.181451 0.386284
vt 0.574526 0.266186
vt 0.678516 0.245832
vt 0.573565 0.377813
vt 0.630063 0.296010
vt 0.707193 0.788752
vt 0.151911 0.386189
vt 0.181103 0.814815
vt 0.301441 0.814910
vt 0.330987 0.815001
vt 0.360532 0.815091
vt 0.784037 0.433326
vt 0.813582 0.433417
vt 0.812636 0.741752
vt 0.210643 0.814910
vt 0.573565 0.374352
vt 0.471959 0.598601
vt 0.843128 0.433507
vt 0.842182 0.741842
vt 0.812052 0.932172
vt 0.782507 0.932082
vt 0.783091 0.741661
vt 0.363161 0.137329
vt 0.360532 0.224920
vt 0.573666 0.132203
vt 0.766633 0.799484
vt 0.360532 0.001105
vt 0.961674 0.040229
vt 0.672889 0.019097
vt 0.350353 0.134387
vt 0.300930 0.981581
vt 0.151562 0.814720
vt 0.841598 0.932263
vt 0.000581 0.000000
vt 0.395790 0.797968
vt 0.783835 0.000000
vt 0.678146 0.600566
vt 0.445861 0.787221
vn 0.863714 -0.503982 0.000000
vn -0.386174 -0.922426 0.000000
vn -0.911949 -0.410304 0.000000
vn 0.480767 -0.876848 0.000000
vn -0.000000 -0.000000 -1.000000
vn -0.000000 0.496128 0.868250
vn 0.668167 0.000000 0.744012
vn -0.668167 0.000000 0.744012
vn -0.000000 -0.970112 -0.242657
vn -0.000000 0.496128 0.868249
vn 0.000000 -0.989119 0.147116
vn -0.000000 0.998995 0.044819
vn -0.000000 0.998798 0.049023
vn 0.863714 0.503982 -0.000000
vn -0.386174 0.922426 0.000000
vn -0.911949 0.410304 0.000000
vn 0.480767 0.876848 -0.000000
vn 0.000000 -0.496128 0.868250
vn 0.000000 0.970112 -0.242657
vn 0.000000 -0.496128 0.868249
vn 0.000000 0.989119 0.147116
vn 0.000000 -0.998995 0.044819
vn 0.000000 -0.998798 0.049023
g Cube.001_Cube.001_Material.001
usemtl Material.001
s off
f 47/73/12 33/74/12 22/75/12
f 56/76/13 27/77/13 38/78/13
f 27/79/14 43/80/14 21/81/14
f 43/80/3 108/82/3 26/83/3
f 23/84/14 25/85/14 29/86/14
f 29/86/14 41/87/14 28/88/14
f 28/88/14 42/89/14 27/79/14
f 25/85/3 84/90/3 41/87/3
f 41/87/3 106/91/3 42/89/3
f 42/89/3 107/92/3 43/80/3
f 112/93/1 47/73/1 34/94/1
f 90/95/1 30/96/1 45/97/1
f 110/98/1 45/97/1 46/99/1
f 111/100/1 46/99/1 47/73/1
f 30/96/12 24/101/12 31/102/12
f 45/97/12 31/102/12 32/103/12
f 46/99/12 32/103/12 33/74/12
f 33/104/15 50/105/15 40/106/15
f 50/105/2 53/107/2 39/108/2
f 53/107/2 56/76/2 38/78/2
f 24/109/15 35/110/15 48/111/15
f 31/112/15 48/111/15 49/113/15
f 32/114/15 49/113/15 50/105/15
f 35/110/2 36/115/2 51/116/2
f 48/111/2 51/116/2 52/117/2
f 49/113/2 52/117/2 53/107/2
f 36/115/2 37/118/2 54/119/2
f 51/116/2 54/119/2 55/120/2
f 52/117/2 55/120/2 56/76/2
f 37/118/13 23/121/13 54/119/13
f 54/119/13 29/122/13 55/120/13
f 55/120/13 28/123/13 56/76/13
f 40/124/16 59/125/16 34/126/16
f 59/125/16 130/127/16 34/126/16
f 21/128/16 26/129/16 38/130/16
f 38/130/16 57/131/16 39/132/16
f 39/132/16 58/133/16 40/124/16
f 26/129/16 85/134/16 57/131/16
f 57/131/16 128/135/16 58/133/16
f 58/133/16 129/136/16 59/125/16
f 37/137/5 64/138/5 23/139/5
f 64/138/5 137/140/5 84/141/5
f 24/142/5 30/143/5 63/144/5
f 74/145/17 75/146/17 65/147/17
f 63/148/18 136/149/18 149/150/18
f 30/143/5 90/141/5 136/151/5
f 75/152/3 72/153/3 65/154/3
f 64/155/19 37/156/19 75/152/19
f 71/157/20 70/158/20 62/159/20
f 37/118/2 36/115/2 72/160/2
f 73/161/21 74/145/21 66/162/21
f 72/160/20 71/157/20 60/163/20
f 36/115/2 35/110/2 70/158/2
f 70/164/1 73/165/1 62/166/1
f 62/166/1 61/167/1 78/168/1
f 44/169/22 60/163/22 77/170/22
f 73/161/5 149/171/5 150/172/5
f 74/145/5 150/172/5 151/173/5
f 61/174/23 66/175/23 68/176/23
f 60/163/22 62/159/22 78/177/22
f 65/154/3 44/178/3 67/179/3
f 66/175/23 65/180/23 67/181/23
f 77/182/24 68/176/24 67/181/24
f 78/183/24 69/184/24 68/176/24
f 137/185/19 64/155/19 151/186/19
f 35/187/18 63/148/18 73/165/18
f 115/73/25 95/94/25 80/75/25
f 124/76/26 100/78/26 87/77/26
f 87/79/27 79/81/27 105/80/27
f 105/80/3 86/83/3 108/82/3
f 81/84/27 89/86/27 83/85/27
f 89/86/27 88/88/27 103/87/27
f 88/88/27 87/79/27 104/89/27
f 83/85/3 103/87/3 84/90/3
f 103/87/3 104/89/3 106/91/3
f 104/89/3 105/80/3 107/92/3
f 112/93/1 96/188/1 95/94/1
f 90/95/1 110/98/1 113/97/1
f 110/98/1 111/100/1 114/99/1
f 111/100/1 112/93/1 115/73/1
f 91/96/25 113/97/25 92/102/25
f 113/97/25 114/99/25 93/103/25
f 114/99/25 115/73/25 94/74/25
f 94/104/28 80/189/28 102/106/28
f 118/105/8 102/106/8 101/108/8
f 121/107/8 101/108/8 100/78/8
f 82/109/28 92/112/28 116/111/28
f 92/112/28 93/114/28 117/113/28
f 93/114/28 94/104/28 118/105/28
f 97/110/8 116/111/8 119/116/8
f 116/111/8 117/113/8 120/117/8
f 117/113/8 118/105/8 121/107/8
f 98/115/8 119/116/8 122/119/8
f 119/116/8 120/117/8 123/120/8
f 120/117/8 121/107/8 124/76/8
f 99/118/26 122/119/26 81/121/26
f 122/119/26 123/120/26 89/122/26
f 123/120/26 124/76/26 88/123/26
f 102/124/16 80/190/16 95/126/16
f 127/125/16 95/126/16 130/127/16
f 79/128/16 100/130/16 86/129/16
f 100/130/16 101/132/16 125/131/16
f 101/132/16 102/124/16 126/133/16
f 86/129/16 125/131/16 85/134/16
f 125/131/16 126/133/16 128/135/16
f 126/133/16 127/125/16 129/136/16
f 99/137/5 81/139/5 135/138/5
f 135/138/5 83/191/5 84/141/5
f 82/142/5 97/192/5 134/144/5
f 147/145/29 139/162/29 138/147/29
f 134/148/18 146/165/18 149/150/18
f 91/143/5 134/144/5 136/151/5
f 148/152/3 138/154/3 145/153/3
f 135/155/19 148/152/19 99/156/19
f 144/157/30 131/163/30 133/159/30
f 99/118/8 145/160/8 98/115/8
f 146/161/31 132/193/31 139/162/31
f 145/160/30 109/169/30 131/163/30
f 98/115/8 144/157/8 143/158/8
f 143/164/1 133/166/1 146/165/1
f 133/166/1 154/168/1 132/167/1
f 109/169/32 152/194/32 153/170/32
f 146/161/5 147/145/5 150/172/5
f 147/145/5 148/146/5 151/173/5
f 132/174/33 142/184/33 141/176/33
f 131/163/32 153/170/32 154/177/32
f 138/154/3 140/179/3 109/178/3
f 139/175/33 141/176/33 140/181/33
f 153/182/34 152/195/34 140/181/34
f 154/183/34 153/182/34 141/176/34
f 137/185/19 151/186/19 135/155/19
f 97/187/18 143/164/18 146/165/18
f 34/94/12 47/73/12 22/75/12
f 27/77/13 21/196/13 38/78/13
f 43/80/14 26/83/14 21/81/14
f 108/82/3 85/197/3 26/83/3
f 25/85/14 41/87/14 29/86/14
f 41/87/14 42/89/14 28/88/14
f 42/89/14 43/80/14 27/79/14
f 84/90/3 106/91/3 41/87/3
f 106/91/3 107/92/3 42/89/3
f 107/92/3 108/82/3 43/80/3
f 96/188/1 112/93/1 34/94/1
f 110/98/1 90/95/1 45/97/1
f 111/100/1 110/98/1 46/99/1
f 112/93/1 111/100/1 47/73/1
f 45/97/12 30/96/12 31/102/12
f 46/99/12 45/97/12 32/103/12
f 47/73/12 46/99/12 33/74/12
f 22/189/15 33/104/15 40/106/15
f 40/106/2 50/105/2 39/108/2
f 39/108/2 53/107/2 38/78/2
f 31/112/15 24/109/15 48/111/15
f 32/114/15 31/112/15 49/113/15
f 33/104/15 32/114/15 50/105/15
f 48/111/2 35/110/2 51/116/2
f 49/113/2 48/111/2 52/117/2
f 50/105/2 49/113/2 53/107/2
f 51/116/2 36/115/2 54/119/2
f 52/117/2 51/116/2 55/120/2
f 53/107/2 52/117/2 56/76/2
f 23/121/13 29/122/13 54/119/13
f 29/122/13 28/123/13 55/120/13
f 28/123/13 27/77/13 56/76/13
f 22/190/16 40/124/16 34/126/16
f 130/127/16 96/198/16 34/126/16
f 26/129/16 57/131/16 38/130/16
f 57/131/16 58/133/16 39/132/16
f 58/133/16 59/125/16 40/124/16
f 85/134/16 128/135/16 57/131/16
f 128/135/16 129/136/16 58/133/16
f 129/136/16 130/127/16 59/125/16
f 64/138/5 25/191/5 23/139/5
f 25/191/5 64/138/5 84/141/5
f 35/192/5 24/142/5 63/144/5
f 66/162/17 74/145/17 65/147/17
f 73/165/18 63/148/18 149/150/18
f 63/144/5 30/143/5 136/151/5
f 72/153/3 44/178/3 65/154/3
f 37/156/19 72/153/19 75/152/19
f 60/163/20 71/157/20 62/159/20
f 36/115/2 71/157/2 72/160/2
f 61/193/21 73/161/21 66/162/21
f 44/169/20 72/160/20 60/163/20
f 71/157/2 36/115/2 70/158/2
f 73/165/3 61/167/3 62/166/3
f 61/167/1 69/199/1 78/168/1
f 76/194/22 44/169/22 77/170/22
f 74/145/5 73/161/5 150/172/5
f 75/146/5 74/145/5 151/173/5
f 69/184/23 61/174/23 68/176/23
f 77/170/22 60/163/22 78/177/22
f 44/178/3 76/200/3 67/179/3
f 68/176/23 66/175/23 67/181/23
f 76/195/24 77/182/24 67/181/24
f 77/182/24 78/183/24 68/176/24
f 64/155/19 75/152/19 151/186/19
f 70/164/18 35/187/18 73/165/18
f 94/74/25 115/73/25 80/75/25
f 100/78/26 79/196/26 87/77/26
f 79/81/27 86/83/27 105/80/27
f 86/83/3 85/197/3 108/82/3
f 89/86/27 103/87/27 83/85/27
f 88/88/27 104/89/27 103/87/27
f 87/79/27 105/80/27 104/89/27
f 103/87/3 106/91/3 84/90/3
f 104/89/3 107/92/3 106/91/3
f 105/80/3 108/82/3 107/92/3
f 115/73/1 112/93/1 95/94/1
f 91/96/1 90/95/1 113/97/1
f 113/97/1 110/98/1 114/99/1
f 114/99/1 111/100/1 115/73/1
f 82/101/25 91/96/25 92/102/25
f 92/102/25 113/97/25 93/103/25
f 93/103/25 114/99/25 94/74/25
f 118/105/28 94/104/28 102/106/28
f 121/107/8 118/105/8 101/108/8
f 124/76/8 121/107/8 100/78/8
f 97/110/28 82/109/28 116/111/28
f 116/111/28 92/112/28 117/113/28
f 117/113/28 93/114/28 118/105/28
f 98/115/8 97/110/8 119/116/8
f 119/116/8 116/111/8 120/117/8
f 120/117/8 117/113/8 121/107/8
f 99/118/8 98/115/8 122/119/8
f 122/119/8 119/116/8 123/120/8
f 123/120/8 120/117/8 124/76/8
f 122/119/26 89/122/26 81/121/26
f 123/120/26 88/123/26 89/122/26
f 124/76/26 87/77/26 88/123/26
f 127/125/16 102/124/16 95/126/16
f 95/126/16 96/198/16 130/127/16
f 100/130/16 125/131/16 86/129/16
f 101/132/16 126/133/16 125/131/16
f 102/124/16 127/125/16 126/133/16
f 125/131/16 128/135/16 85/134/16
f 126/133/16 129/136/16 128/135/16
f 127/125/16 130/127/16 129/136/16
f 81/139/5 83/191/5 135/138/5
f 137/140/5 135/138/5 84/141/5
f 91/143/5 82/142/5 134/144/5
f 148/146/29 147/145/29 138/147/29
f 136/149/18 134/148/18 149/150/18
f 90/141/5 91/143/5 136/151/5
f 138/154/3 109/178/3 145/153/3
f 148/152/19 145/153/19 99/156/19
f 143/158/30 144/157/30 133/159/30
f 145/160/8 144/157/8 98/115/8
f 147/145/31 146/161/31 139/162/31
f 144/157/30 145/160/30 131/163/30
f 97/110/8 98/115/8 143/158/8
f 133/166/3 132/167/3 146/165/3
f 154/168/1 142/199/1 132/167/1
f 131/163/32 109/169/32 153/170/32
f 149/171/5 146/161/5 150/172/5
f 150/172/5 147/145/5 151/173/5
f 139/175/33 132/174/33 141/176/33
f 133/159/32 131/163/32 154/177/32
f 140/179/3 152/200/3 109/178/3
f 138/180/33 139/175/33 140/181/33
f 141/176/34 153/182/34 140/181/34
f 142/184/34 154/183/34 141/176/34
f 151/186/19 148/152/19 135/155/19
f 134/148/18 97/187/18 146/165/18
