# Blender v2.67 (sub 0) OBJ File: 'tower.blend'
# www.blender.org
mtllib wall-corner.mtl
v 0.000000 -0.707107 -0.039174
v -0.707107 0.000000 -0.039174
v 0.000000 0.707107 -0.039174
v 0.707107 0.000000 -0.039174
v 0.000000 -0.707107 0.203894
v -0.707107 0.000000 0.203894
v 0.000000 0.707107 0.203894
v 0.707107 0.000000 0.203894
v -0.235702 -0.471404 0.203894
v -0.471405 -0.235702 0.203894
v -0.471404 -0.235702 -0.039174
v -0.235702 -0.471405 -0.039174
v 0.235702 0.471404 0.203894
v 0.471405 0.235702 0.203894
v 0.471404 0.235702 -0.039174
v 0.235702 0.471405 -0.039174
v -0.235702 -0.000000 0.203894
v 0.000000 0.235702 0.203894
v -0.000000 -0.235702 0.203894
v 0.235702 -0.000000 0.203894
v -0.000000 -0.235702 1.839747
v 0.235702 -0.000000 1.839747
v 0.235702 -0.471405 1.839747
v 0.471404 -0.235702 1.839747
v -0.471405 0.235702 -0.039174
v -0.235702 0.471404 -0.039174
v -0.235702 0.471405 0.203894
v -0.471404 0.235702 0.203894
v 0.471405 -0.235702 -0.039174
v 0.235702 -0.471404 -0.039174
v 0.235702 -0.471405 0.203894
v 0.471404 -0.235702 0.203894
v 0.000000 0.235702 -0.039174
v -0.235702 0.000000 -0.039174
v 0.235702 0.000000 -0.039174
v 0.000000 -0.235702 -0.039174
v 0.000000 0.235702 1.839747
v -0.235702 -0.000000 1.839747
v 0.471405 0.235702 1.839747
v 0.235702 0.471404 1.839747
vt 0.354384 0.611886
vt 0.354116 0.524508
vt 0.418100 0.611691
vt 0.843703 0.227012
vt 0.843971 0.139634
vt 0.907419 0.227207
vt 0.421268 0.095500
vt 0.333890 0.095769
vt 0.333694 0.032052
vt 0.246121 0.460061
vt 0.333499 0.459793
vt 0.333694 0.523509
vt 0.159279 0.611959
vt 0.071901 0.611691
vt 0.159547 0.524581
vt 0.719595 0.216606
vt 0.781381 0.154820
vt 0.843167 0.216606
vt 0.354920 0.786642
vt 0.354652 0.699264
vt 0.418637 0.786447
vt 0.418368 0.699069
vt 0.596023 0.094964
vt 0.508645 0.095232
vt 0.508450 0.031516
vt 0.421072 0.031784
vt 0.334035 0.612495
vt 0.246657 0.612227
vt 0.334303 0.525117
vt 0.246925 0.524849
vt 0.596023 0.340177
vt 0.657809 0.278391
vt 0.719595 0.340177
vt 0.781381 0.278391
vt 0.158743 0.460329
vt 0.246316 0.523777
vt 0.159011 0.699337
vt 0.071633 0.699069
vt 0.246121 0.786983
vt 0.158743 0.786715
vt 0.246389 0.699605
vt 0.843167 0.401767
vt 0.843435 0.314390
vt 0.906883 0.401963
vt 0.071365 0.786447
vt 0.596023 0.093034
vt 0.657809 0.031248
vt 0.719595 0.093034
vt 0.907151 0.314585
vt 0.657809 0.154820
vt 0.333499 0.787251
vt 0.333767 0.699873
vt 0.071365 0.460597
vt 0.158938 0.524045
vt 0.071365 0.874629
vt 0.071633 0.787251
vt 0.159011 0.787519
vt 0.418637 0.524581
vt 0.506014 0.524313
vt 0.507330 0.953125
vt 0.596023 0.402499
vt 0.683401 0.402231
vt 0.597339 0.831312
vt 0.773410 0.401963
vt 0.860788 0.402231
vt 0.772095 0.830775
vt 0.596023 0.953125
vt 0.508645 0.953393
vt 0.507330 0.524581
vt 0.246389 0.787519
vt 0.333767 0.787251
vt 0.334035 0.874629
vt 0.509961 0.524045
vt 0.246657 0.874897
vt 0.334303 0.962007
vt 0.770779 0.401963
vt 0.684717 0.831043
vt 0.159279 0.875165
vt 0.246925 0.962275
vt 0.948166 0.402499
vt 0.859473 0.831043
vt 0.157427 0.031516
vt 0.417832 0.524313
vt 0.907687 0.139829
vt 0.072169 0.524313
vt 0.595828 0.031248
vt 0.657809 0.401963
vt 0.071561 0.524313
vt 0.158743 0.874897
vt 0.419952 0.953393
vt 0.594708 0.524313
vt 0.422583 0.524313
vt 0.159547 0.962543
vt 0.946851 0.831312
vt 0.244805 0.031248
vn -0.707107 -0.707107 -0.000000
vn -0.707107 0.707107 -0.000000
vn 0.707107 0.707107 -0.000000
vn 0.707107 -0.707107 0.000000
vn 0.000000 -0.000000 -1.000000
vn -0.000000 0.000000 1.000000
g Cube_Cube.003_Material.001
usemtl Material.001
s off
f 10/1/1 6/2/1 11/3/1
f 27/4/2 7/5/2 26/6/2
f 14/7/3 8/8/3 4/9/3
f 31/10/4 5/11/4 1/12/4
f 33/13/5 26/14/5 16/15/5
f 17/16/6 28/17/6 6/18/6
f 5/19/1 9/20/1 1/21/1
f 9/20/1 10/1/1 12/22/1
f 7/23/3 13/24/3 16/25/3
f 13/24/3 14/7/3 15/26/3
f 29/27/5 35/28/5 4/29/5
f 35/28/5 33/13/5 15/30/5
f 31/31/6 19/32/6 9/33/6
f 19/32/6 17/16/6 10/34/6
f 32/35/4 31/10/4 30/36/4
f 34/37/5 25/38/5 33/13/5
f 12/39/5 11/40/5 36/41/5
f 36/41/5 34/37/5 35/28/5
f 6/42/2 28/43/2 2/44/2
f 11/40/5 2/45/5 34/37/5
f 13/46/6 7/47/6 27/48/6
f 28/43/2 27/4/2 25/49/2
f 18/50/6 27/48/6 28/17/6
f 1/51/5 12/39/5 30/52/5
f 30/52/5 36/41/5 29/27/5
f 8/53/4 32/35/4 29/54/4
f 8/55/6 14/56/6 20/57/6
f 32/58/3 20/59/3 22/60/3
f 17/61/1 19/62/1 38/63/1
f 13/64/2 18/65/2 40/66/2
f 20/67/4 14/68/4 39/69/4
f 39/70/6 40/71/6 37/72/6
f 14/7/3 13/24/3 40/73/3
f 22/74/6 37/72/6 38/75/6
f 19/62/1 31/76/1 21/77/1
f 24/78/6 22/74/6 21/79/6
f 18/65/2 17/80/2 37/81/2
f 31/10/4 32/35/4 24/82/4
f 6/2/1 2/83/1 11/3/1
f 7/5/2 3/84/2 26/6/2
f 15/26/3 14/7/3 4/9/3
f 30/36/4 31/10/4 1/12/4
f 26/14/5 3/85/5 16/15/5
f 10/34/6 17/16/6 6/18/6
f 9/20/1 12/22/1 1/21/1
f 10/1/1 11/3/1 12/22/1
f 3/86/3 7/23/3 16/25/3
f 16/25/3 13/24/3 15/26/3
f 35/28/5 15/30/5 4/29/5
f 33/13/5 16/15/5 15/30/5
f 5/87/6 31/31/6 9/33/6
f 9/33/6 19/32/6 10/34/6
f 29/54/4 32/35/4 30/36/4
f 25/38/5 26/14/5 33/13/5
f 11/40/5 34/37/5 36/41/5
f 34/37/5 33/13/5 35/28/5
f 28/43/2 25/49/2 2/44/2
f 2/45/5 25/38/5 34/37/5
f 18/50/6 13/46/6 27/48/6
f 27/4/2 26/6/2 25/49/2
f 17/16/6 18/50/6 28/17/6
f 12/39/5 36/41/5 30/52/5
f 36/41/5 35/28/5 29/27/5
f 4/88/4 8/53/4 29/54/4
f 32/89/6 8/55/6 20/57/6
f 24/90/3 32/58/3 22/60/3
f 19/62/1 21/77/1 38/63/1
f 18/65/2 37/81/2 40/66/2
f 22/91/4 20/67/4 39/69/4
f 22/74/6 39/70/6 37/72/6
f 39/92/3 14/7/3 40/73/3
f 21/79/6 22/74/6 38/75/6
f 31/76/1 23/66/1 21/77/1
f 23/93/6 24/78/6 21/79/6
f 17/80/2 38/94/2 37/81/2
f 23/95/4 31/10/4 24/82/4
