# Blender v2.67 (sub 0) OBJ File: 'tower.blend'
# www.blender.org
mtllib wall.mtl
v -0.509607 -0.490587 -0.027729
v -0.509607 0.490587 -0.027729
v 0.509607 0.490587 -0.027729
v 0.509607 -0.490587 -0.027729
v -0.163491 0.490587 1.466507
v -0.163491 -0.490587 1.466507
v 0.163491 0.490587 1.466507
v 0.163491 -0.490587 1.466507
v -0.099552 -0.490587 1.741972
v -0.163491 -0.490587 1.579074
v -0.163491 -0.352790 1.841603
v -0.099552 -0.438292 1.841603
v 0.099552 -0.438292 1.841603
v 0.163491 -0.352790 1.841603
v 0.163491 -0.490587 1.579074
v 0.099552 -0.490587 1.741972
v -0.099552 0.443704 1.841603
v -0.163491 0.358202 1.841603
v -0.163491 0.490587 1.589383
v -0.099552 0.490587 1.752282
v 0.099552 0.490587 1.752282
v 0.163491 0.490587 1.589383
v 0.163491 0.358202 1.841603
v 0.099552 0.443704 1.841603
v -0.163491 0.490587 0.373617
v 0.163491 0.490587 0.373617
v 0.163491 -0.490587 0.373617
v -0.163491 -0.490587 0.373617
vt 0.377146 0.616592
vt 0.008588 0.614490
vt 0.377705 0.363000
vt 0.775517 0.140954
vt 0.775419 0.020926
vt 0.950556 0.141679
vt 0.343089 0.326485
vt 0.341358 0.007036
vt 0.566889 0.006644
vt 0.570582 0.550763
vt 0.903009 0.549743
vt 0.570989 0.683625
vt 0.961356 0.313865
vt 0.604135 0.313410
vt 0.962452 0.165392
vt 0.408221 0.414063
vt 0.420406 0.348992
vt 0.408129 0.616484
vt 0.634973 0.350998
vt 0.837394 0.350377
vt 0.837448 0.368094
vt 0.904038 0.618621
vt 0.903417 0.416201
vt 0.919301 0.416152
vt 0.570113 0.397883
vt 0.635027 0.368715
vt 0.570174 0.417901
vt 0.080465 0.326941
vt 0.004095 0.283971
vt 0.117558 0.326876
vt 0.949090 0.683487
vt 0.919922 0.618572
vt 0.902397 0.350177
vt 0.902540 0.396863
vt 0.569969 0.351197
vt 0.532445 0.350802
vt 0.551253 0.351520
vt 0.548380 0.416460
vt 0.904237 0.683625
vt 0.376503 0.908391
vt 0.324546 0.997205
vt 0.057476 0.995682
vt 0.376587 0.870183
vt 0.008029 0.868081
vt 0.600478 0.140229
vt 0.600380 0.020201
vt 0.115827 0.007427
vt 0.902602 0.416881
vt 0.009147 0.360898
vt 0.950458 0.021651
vt 0.568620 0.326093
vt 0.903417 0.682605
vt 0.605231 0.164937
vt 0.521486 0.348428
vt 0.533613 0.413364
vt 0.533521 0.615785
vt 0.521336 0.680856
vt 0.420255 0.681419
vt 0.002840 0.052488
vt 0.081846 0.007486
vt 0.948070 0.351059
vt 0.970942 0.683420
vt 0.969922 0.350992
vt 0.541720 0.416206
vt 0.007937 0.909789
vn -0.757291 0.000000 0.653078
vn 0.000000 1.000000 -0.000000
vn 0.757291 -0.000000 0.653078
vn 0.000000 -1.000000 -0.000000
vn -0.000000 -0.000000 -1.000000
vn -0.000000 0.000000 1.000000
vn 0.000000 -0.885442 0.464750
vn 0.000000 0.885442 0.464750
vn -0.000001 -1.000000 0.000000
vn 1.000000 -0.000000 -0.000000
vn -0.763989 -0.571314 0.299870
vn 0.763988 -0.571314 0.299871
vn 0.763988 0.571314 0.299871
vn -0.763988 0.571314 0.299870
vn -1.000000 -0.000000 0.000000
vn -0.763988 -0.571314 0.299870
vn 0.763989 -0.571314 0.299870
vn 0.763989 0.571314 0.299870
g Cube.001_Cube.001_Material.001
usemtl Material.001
s off
f 28/1/1 25/2/1 1/3/1
f 25/4/2 26/5/2 2/6/2
f 26/7/3 27/8/3 4/9/3
f 27/10/4 28/11/4 4/12/4
f 1/13/5 2/14/5 4/15/5
f 13/16/6 14/17/6 12/18/6
f 13/19/7 12/20/7 9/21/7
f 17/22/8 24/23/8 21/24/8
f 15/25/9 16/26/9 8/27/9
f 22/28/10 23/29/10 7/30/10
f 19/31/2 20/32/2 21/24/2
f 11/33/11 10/34/11 12/20/11
f 15/25/12 14/35/12 16/26/12
f 23/36/13 22/37/13 21/38/13
f 19/31/14 18/39/14 17/22/14
f 10/40/15 11/41/15 18/42/15
f 6/43/15 5/44/15 28/1/15
f 5/45/2 7/46/2 26/5/2
f 7/30/10 8/47/10 27/8/10
f 8/27/4 6/48/4 28/11/4
f 25/2/1 2/49/1 1/3/1
f 26/5/2 3/50/2 2/6/2
f 3/51/3 26/7/3 4/9/3
f 28/11/4 1/52/4 4/12/4
f 2/14/5 3/53/5 4/15/5
f 14/17/6 23/54/6 12/18/6
f 23/54/6 24/55/6 12/18/6
f 24/55/6 17/56/6 12/18/6
f 17/56/6 18/57/6 11/58/6
f 12/18/6 17/56/6 11/58/6
f 16/26/7 13/19/7 9/21/7
f 20/32/8 17/22/8 21/24/8
f 8/27/4 10/34/4 6/48/4
f 16/26/4 9/21/4 8/27/4
f 9/21/4 10/34/4 8/27/4
f 23/29/10 14/59/10 7/30/10
f 14/59/10 15/60/10 8/47/10
f 7/30/10 14/59/10 8/47/10
f 19/31/2 21/24/2 22/61/2
f 5/62/2 19/31/2 22/61/2
f 7/63/2 5/62/2 22/61/2
f 10/34/16 9/21/16 12/20/16
f 14/35/17 13/19/17 16/26/17
f 24/64/18 23/36/18 21/38/18
f 20/32/14 19/31/14 17/22/14
f 10/40/15 18/42/15 19/65/15
f 6/43/15 10/40/15 19/65/15
f 5/44/15 6/43/15 19/65/15
f 5/44/15 25/2/15 28/1/15
f 25/4/2 5/45/2 26/5/2
f 26/7/10 7/30/10 27/8/10
f 27/10/4 8/27/4 28/11/4
